# xmcd
#
# Track frame offsets: 
#        150
#        14740
#        32968
#        47560
#
# Disc length: 874 seconds
#
# Revision: 0
# Processed by: cddbd v1.5.2PL0 Copyright (c) Steve Scherf et al.
# Submitted via: ExactAudioCopyFreeDBPlugin 1.0
#
DISCID=2f036804
DTITLE=Various Artists / Transformers Galaxy Force OP-ED 1
DYEAR=2005
DGENRE=Anime
TTITLE0=Kakishima Shinji / Call You...Kimi to Boku no Mirai
TTITLE1=Issei Tomoka / Itsumo
TTITLE2=Karaoke / Call You...Kimi to Boku no Mirai (Original Karaoke)
TTITLE3=Karaoke / Itsumo (Original Karaoke)
EXTD=
EXTT0=
EXTT1=
EXTT2=
EXTT3=
PLAYORDER=
